<svg width="72" height="72" fill="none" xmlns="http://www.w3.org/2000/svg"><path d="M71.984 18.28a1.073 1.073 0 00-.617-.794L44.93 5.588a1.072 1.072 0 00-1.151.175l-7.78 6.885-7.778-6.885a1.072 1.072 0 00-1.151-.175L.633 17.486a1.074 1.074 0 00-.307 1.75l8.35 8.1-4.708 8.314a1.073 1.073 0 00.402 1.461l4.576 2.612v10.68c0 .384.205.738.536.93l25.98 15.03a1.075 1.075 0 001.053.011l-.002.003 26.005-15.044c.331-.192.535-.546.535-.93v-10.68l4.577-2.611c.514-.294.693-.947.401-1.462l-4.708-8.314 8.35-8.1a1.07 1.07 0 00.31-.956zM45.59 34.947l-8.518-4.934v-14.19l22.603 11.364-14.085 7.76zm-33.267-7.76l22.603-11.364v14.19l-8.518 4.934-14.085-7.76zm-9.368-8.392L27.318 7.83l6.783 6.005L10.22 25.84l-7.264-7.046zm3.408 16.982l4.067-7.181 23.958 13.2-5.315 6.942-22.71-12.96zm28.563 27.795L11.092 49.785v-8.836l17.73 10.119a1.074 1.074 0 001.385-.28l4.719-6.163v18.947zM36 40.232l-7.396-4.075L36 31.873l7.396 4.284L36 40.232zm24.906 9.553L37.073 63.572V44.625l4.718 6.163a1.073 1.073 0 001.385.28l17.73-10.12v8.837zm4.73-14.008l-22.71 12.96-5.315-6.942 23.958-13.2 4.067 7.182zm-3.855-9.936L37.898 13.834l6.783-6.004 24.362 10.965-7.263 7.046z" fill="#FF9601"/></svg>